<svg
  width="29"
  height="28"
  viewBox="0 0 29 28"
  fill="none"
  xmlns="http://www.w3.org/2000/svg"
>
  <path
    d="M27.2273 6.22222H20.0147V1.55556C20.0147 1.143 19.8806 0.747335 19.642 0.455612C19.4033 0.163888 19.0795 0 18.742 0H10.258C9.92045 0 9.59673 0.163888 9.35805 0.455612C9.11936 0.747335 8.98527 1.143 8.98527 1.55556V12.4444H1.77273C1.43518 12.4444 1.11146 12.6083 0.872773 12.9001C0.63409 13.1918 0.5 13.5874 0.5 14V26.4444C0.5 26.857 0.63409 27.2527 0.872773 27.5444C1.11146 27.8361 1.43518 28 1.77273 28H27.2273C27.5648 28 27.8885 27.8361 28.1272 27.5444C28.3659 27.2527 28.5 26.857 28.5 26.4444V7.77778C28.5 7.36522 28.3659 6.96956 28.1272 6.67783C27.8885 6.38611 27.5648 6.22222 27.2273 6.22222ZM8.98527 24.8889H3.04545V15.5556H8.98527V24.8889ZM17.4693 24.8889H11.5307V3.11111H17.4693V24.8889ZM25.9545 24.8889H20.0147V9.33333H25.9545V24.8889Z"
  />
</svg>
