<?xml version="1.0" encoding="UTF-8"?>
<!DOCTYPE svg PUBLIC "-//W3C//DTD SVG 1.1//EN" "http://www.w3.org/Graphics/SVG/1.1/DTD/svg11.dtd">
<!-- Creator: CorelDRAW 2021 (64-Bit) -->
<svg xmlns="http://www.w3.org/2000/svg" xml:space="preserve" width="8.5in" height="11in" version="1.1" style="shape-rendering:geometricPrecision; text-rendering:geometricPrecision; image-rendering:optimizeQuality; fill-rule:evenodd; clip-rule:evenodd"
viewBox="0 0 8500 11000"
 xmlns:xlink="http://www.w3.org/1999/xlink"
 xmlns:xodm="http://www.corel.com/coreldraw/odm/2003">
 <defs>
  <style type="text/css">
   <![CDATA[
    .str0 {stroke:black;stroke-width:41.67;stroke-miterlimit:2.61313}
    .fil0 {fill:black}
   ]]>
  </style>
 </defs>
 <g id="Layer_x0020_1">
  <metadata id="CorelCorpID_0Corel-Layer"/>
  <g id="_2819710638992">
   <path class="fil0 str0" d="M1804.75 6863.27l936.88 948.68c179.05,-112.35 5176.92,-5024.31 5267.2,-5284.78 -127.13,-254.5 -612.46,-670.51 -823.17,-874.97 -220.99,27.71 -220.35,20.64 -350.61,162.26 -539.06,-391.6 -342.69,-419.83 -1507.72,733.74l-1428.58 1444.96c-252.65,305.86 -49.72,519.97 471.59,-71.89l1438.02 -1419.52c175.3,-154.04 488.78,-672.2 686.72,-567.26l30.74 81.57c-0.34,6.29 4.7,32.85 3.24,40.6 -28.72,151.2 -2139.69,2183.11 -2289.43,2335.53 -847.32,862.43 -1577.4,1704.98 -2434.88,2471.09z"/>
   <path class="fil0 str0" d="M2538.81 8098.81c-120.68,-213.51 -682.42,-785.93 -915.49,-978.12l-969.83 1361.5c139.64,160.26 365.74,330.1 518.84,488.96 483.8,-190.55 936.52,-685.85 1366.48,-872.33z"/>
   <path class="fil0 str0" d="M855.97 9140.37l-344.31 -385.17c-196.24,201.2 -251.67,296.68 -236.05,611.19 262.34,-19.58 406.26,-96.54 580.36,-226.02z"/>
   <path class="fil0 str0" d="M7487.8 1398.45c80.1,263.57 535.63,676.89 640.82,712.52 115.46,39.11 97.27,8.99 141.64,-2.45 129.69,-242.72 116.39,-254.91 -186.59,-555.01 -156.23,-154.74 -410.86,-384.55 -595.87,-155.06z"/>
  </g>
 </g>
</svg>
